<?xml version="1.0" encoding="UTF-8" standalone="no"?>
<svg
   xmlns:dc="http://purl.org/dc/elements/1.1/"
   xmlns:cc="http://creativecommons.org/ns#"
   xmlns:rdf="http://www.w3.org/1999/02/22-rdf-syntax-ns#"
   xmlns:svg="http://www.w3.org/2000/svg"
   xmlns="http://www.w3.org/2000/svg"
   xmlns:xlink="http://www.w3.org/1999/xlink"
   xmlns:sodipodi="http://sodipodi.sourceforge.net/DTD/sodipodi-0.dtd"
   xmlns:inkscape="http://www.inkscape.org/namespaces/inkscape"
   width="20px"
   height="20px"
   viewBox="0 0 20 20"
   version="1.1"
   id="svg18"
   sodipodi:docname="icon-search-gris.svg"
   inkscape:version="1.0.1 (3bc2e813f5, 2020-09-07)">
  <metadata
     id="metadata22">
    <rdf:RDF>
      <cc:Work
         rdf:about="">
        <dc:format>image/svg+xml</dc:format>
        <dc:type
           rdf:resource="http://purl.org/dc/dcmitype/StillImage" />
        <dc:title>icon-search</dc:title>
      </cc:Work>
    </rdf:RDF>
  </metadata>
  <sodipodi:namedview
     pagecolor="#ffffff"
     bordercolor="#666666"
     borderopacity="1"
     objecttolerance="10"
     gridtolerance="10"
     guidetolerance="10"
     inkscape:pageopacity="0"
     inkscape:pageshadow="2"
     inkscape:window-width="1920"
     inkscape:window-height="986"
     id="namedview20"
     showgrid="false"
     inkscape:zoom="35.8"
     inkscape:cx="10"
     inkscape:cy="9.0157208"
     inkscape:window-x="-11"
     inkscape:window-y="-11"
     inkscape:window-maximized="1"
     inkscape:current-layer="svg18" />
  <!-- Generator: Sketch 63.1 (92452) - https://sketch.com -->
  <title
     id="title2">icon-search</title>
  <desc
     id="desc4">Created with Sketch.</desc>
  <defs
     id="defs7">
    <path
       d="M8.5,0 C13.1944204,0 17,3.80557963 17,8.5 C17,10.4865245 16.3185332,12.3138839 15.1766205,13.7610573 L19.7071068,18.2928932 C20.0976311,18.6834175 20.0976311,19.3165825 19.7071068,19.7071068 C19.3165825,20.0976311 18.6834175,20.0976311 18.2928932,19.7071068 L18.2928932,19.7071068 L13.7610573,15.1766205 C12.3138839,16.3185332 10.4865245,17 8.5,17 C3.80557963,17 0,13.1944204 0,8.5 C0,3.80557963 3.80557963,0 8.5,0 Z M8.5,2 C4.91014913,2 2,4.91014913 2,8.5 C2,12.0898509 4.91014913,15 8.5,15 C10.2704128,15 11.8755097,14.2921984 13.0477521,13.1441339 L13.0928932,13.0928932 C13.1090201,13.0767663 13.1255608,13.0613054 13.1424811,13.0465104 C14.2921984,11.8755097 15,10.2704128 15,8.5 C15,4.91014913 12.0898509,2 8.5,2 Z"
       id="path-1" />
  </defs>
  <g
     id="GIFOS"
     stroke="none"
     stroke-width="1"
     fill="none"
     fill-rule="evenodd">
    <g
       id="00-UI-Kit"
       transform="translate(-637.000000, -518.000000)">
      <g
         id="-Nav-Desktop-Sticky"
         transform="translate(0.000000, 479.000000)">
        <g
           id="icon-search"
           transform="translate(637.000000, 39.000000)">
          <mask
             id="mask-2"
             fill="white">
            <use
               xlink:href="#path-1"
               id="use9" />
          </mask>
          <use
             fill="#572EE5"
             fill-rule="nonzero"
             xlink:href="#path-1"
             id="use12"
             style="stroke-width:50.0711811;fill:#9cafc3;stroke-linejoin:round;opacity:0.61044177" />
        </g>
      </g>
    </g>
  </g>
</svg>
